# xmcd CD database file
#
# Track frame offsets:
#	150
#	24391
#	41326
#	54517
#	64937
#	76075
#	89988
#	103131
#	120202
#
# Disc length: 2374 seconds
#
# Revision: 2
# Processed by: cddbd v1.5.2PL0 Copyright (c) Steve Scherf et al.
# Submitted via: CDex 1.70beta2
#
DISCID=6c094409
DTITLE=Joseph Spence - Happy All The Time
DYEAR=2003
DGENRE=Blues
TTITLE0=Out On The Rolling Sea
TTITLE1=Bimini Gal
TTITLE2=We Shall Be Happy
TTITLE3=The Crow
TTITLE4=Diamond On Earth
TTITLE5=Uncle Lou - No Lazy Man
TTITLE6=How I Love Jesus
TTITLE7=Conch Ain't Got No Bone
TTITLE8=I Am Living On The Hallelujah Side
EXTD=Water CD110 (orig: Elektra, 1964) YEAR: 2003
EXTT0=
EXTT1=
EXTT2=
EXTT3=
EXTT4=
EXTT5=
EXTT6=
EXTT7=
EXTT8=
PLAYORDER=
